Coordinates
version=1
nRows=14
nColumns=36
inDegrees=yes

Units are S.I. units (second, meters, Newtons, ...)
If the header above contains a line with 'inDegrees', this indicates whether rotational values are in degrees (yes) or radians (no).

endheader
time	pelvis_tilt	pelvis_list	pelvis_rotation	pelvis_tx	pelvis_ty	pelvis_tz	hip_flexion_r	hip_adduction_r	hip_rotation_r	knee_angle_r	knee_angle_r_beta	ankle_angle_r	subtalar_angle_r	mtp_angle_r	hip_flexion_l	hip_adduction_l	hip_rotation_l	knee_angle_l	knee_angle_l_beta	ankle_angle_l	subtalar_angle_l	mtp_angle_l	lumbar_extension	lumbar_bending	lumbar_rotation	arm_flex_r	arm_add_r	arm_rot_r	elbow_flex_r	pro_sup_r	arm_flex_l	arm_add_l	arm_rot_l	elbow_flex_l	pro_sup_l
      4.40000000	     -3.16159016	      0.31063458	     -2.22641350	      0.26735758	      1.00341537	     -0.10402020	      2.90683932	     -5.84019866	     -2.05529629	      4.11931204	      0.07189556	      6.49522584	    -10.86231097	     -7.49999987	      1.15980295	     -6.58433927	     -1.64255000	      1.81291068	      0.03164126	      3.35074230	     -5.28515542	     -7.49999987	     -4.93993029	      0.62434463	      1.11993676	      2.48893634	     -6.63287020	      8.82093359	     19.89276180	     69.20822153	      1.26258284	     -8.62528122	     24.90131474	     19.13858595	     71.62000799
      4.40416670	     -3.13670087	      0.36798713	     -2.25054334	      0.26758131	      1.00023263	     -0.10398979	      3.00605900	     -6.01505294	     -2.24655693	      4.30758579	      0.07518155	      6.67804897	    -10.66725197	     -7.49999987	      1.19605667	     -6.44340887	     -1.52853540	      1.87775428	      0.03277299	      3.34047625	     -5.63680432	     -7.49999987	     -5.10281674	      0.63489699	      1.25037996	      2.51681390	     -6.66854747	      7.51736870	     19.43238139	     70.13982660	      1.65519913	     -8.62288997	     26.52092305	     18.42287624	     72.88036401
      4.40833330	     -3.15445225	      0.33854894	     -2.33398811	      0.26738330	      1.00082510	     -0.10369847	      3.08437114	     -6.03937923	     -2.20073385	      4.37636630	      0.07638200	      6.84106377	    -10.54930527	     -7.49999987	      1.21759866	     -6.40374749	     -1.48651148	      1.84283477	      0.03216353	      3.46980028	     -5.60574195	     -7.49999987	     -5.15936973	      0.79862946	      1.33326928	      2.41397119	     -6.71182205	      5.89141265	     19.35606483	     71.88589581	      1.63560014	     -8.51402315	     26.23423524	     18.38211003	     74.64236064
      4.41250000	     -3.09043192	      0.36382769	     -2.32072794	      0.26761645	      1.00065727	     -0.10375729	      3.00269734	     -6.13977089	     -2.20750359	      4.37866567	      0.07642213	      6.75371643	    -10.60504241	     -7.49999987	      1.18216191	     -6.33173356	     -1.54855296	      1.87863376	      0.03278834	      3.63769362	     -5.39520884	     -7.49999987	     -5.26303661	      0.78413415	      1.29216112	      2.22273926	     -6.72603229	      5.38668220	     19.29789454	     70.38932298	      1.50669593	     -8.59414265	     25.96927391	     18.55044053	     72.91539292
      4.41666670	     -3.28132055	      0.36903307	     -2.39628140	      0.26751985	      1.00086185	     -0.10353345	      3.23838396	     -6.16852674	     -2.17982845	      4.40451931	      0.07687336	      6.84227836	    -10.47807920	     -7.49999987	      1.38173582	     -6.32195855	     -1.53035845	      1.90040461	      0.03316832	      3.71576008	     -5.35597873	     -7.49999987	     -4.93534647	      0.84820203	      1.22255200	      2.08375534	     -6.73431626	      4.84359043	     18.86369458	     68.96470758	      1.32406961	     -8.60644867	     26.33781680	     18.31269866	     71.38343056
      4.42083330	     -3.27023871	      0.37603718	     -2.47141705	      0.26766502	      1.00067252	     -0.10346568	      3.22715707	     -6.18722015	     -2.12991743	      4.37046482	      0.07627900	      6.94771012	    -10.33782849	     -7.49999987	      1.35098730	     -6.31884031	     -1.53400731	      1.92751449	      0.03364147	      3.66843648	     -5.50413746	     -7.49999987	     -4.91305432	      0.88359017	      1.34199460	      1.74811866	     -6.71049381	      2.49240296	     18.86742029	     72.10660542	      1.28152072	     -8.69599556	     26.47416005	     18.18410300	     74.64821174
      4.42500000	     -3.36144779	      0.38868148	     -2.44766994	      0.26755054	      1.00095852	     -0.10335883	      3.28201943	     -6.19066776	     -2.13505549	      4.30634493	      0.07515990	      6.87329775	    -10.33908345	     -7.49999987	      1.38057723	     -6.31103711	     -1.37492274	      1.83786263	      0.03207675	      3.57505253	     -5.61045561	     -7.49999987	     -4.74702098	      0.90326368	      1.25874610	      1.57443660	     -6.77217986	      2.06380794	     18.58652519	     70.19526207	      1.16580841	     -8.79457192	     26.53706058	     18.12071364	     72.46920746
      4.42916670	     -3.35475643	      0.34846442	     -2.52874222	      0.26353563	      1.00063239	     -0.09863154	      3.36181827	     -6.08154237	     -2.15791628	      4.29044588	      0.07488241	      6.88189501	    -10.34263644	     -7.49999987	      1.37207154	     -6.41465933	     -1.39148036	      1.82420942	      0.03183846	      3.60360611	     -5.63630142	     -7.49999987	     -4.81432792	      0.87218819	      1.23517620	      1.49307747	     -6.86228967	      2.04116721	     18.54289466	     70.19557992	      1.09039187	     -8.97987013	     26.53093388	     18.05742630	     72.47541454
      4.43333330	     -3.36154369	      0.31347557	     -2.61475126	      0.26721995	      1.00424074	     -0.10344950	      3.37856166	     -6.03511976	     -2.15071818	      4.30509931	      0.07513816	      6.74136039	    -10.22418841	     -7.49999987	      1.32945559	     -6.46910346	     -1.45030516	      1.78113740	      0.03108671	      3.49246853	     -5.61372754	     -7.49999987	     -4.75968291	      0.95058060	      1.19649785	      1.41457899	     -7.03833639	      1.94546735	     18.41868550	     70.18489900	      0.93198455	     -9.08151892	     26.55306603	     17.97865572	     72.50039001
      4.43750000	     -3.52272843	      0.26294858	     -2.63314824	      0.26759985	      1.00666679	     -0.10374319	      3.52351224	     -5.96999869	     -2.21054857	      4.25343964	      0.07423653	      6.72622443	     -9.98214515	     -7.49999987	      1.43409929	     -6.50462022	     -1.38960253	      1.69685349	      0.02961568	      3.32828399	     -5.90701784	     -7.49999987	     -4.48985363	      1.06804006	      1.16168066	      1.28316520	     -6.98268077	      0.51348307	     18.01140602	     68.13746394	      0.71166261	     -9.08728359	     26.91473736	     17.67684401	     70.43390852
      4.44166670	     -3.46935928	      0.23385624	     -2.62768614	      0.26732984	      1.00350833	     -0.10362111	      3.45025623	     -5.94325269	     -2.18320393	      4.20003812	      0.07330449	      6.62946135	     -9.92452870	     -7.49999987	      1.35642142	     -6.49279493	     -1.41772176	      1.67124382	      0.02916871	      3.36446095	     -5.86067658	     -7.49999987	     -4.56737963	      1.23098660	      1.28438419	      0.89046475	     -7.00867890	     -2.56916489	     18.39087006	     72.37301645	      0.67396994	     -9.16467029	     26.72316835	     17.40807931	     74.09790268
      4.44583330	     -3.43707098	      0.26368382	     -2.58965625	      0.26744446	      1.00622863	     -0.10388113	      3.35876250	     -5.99546501	     -2.27301184	      4.13323942	      0.07213864	      6.61752721	     -9.65206475	     -7.49999987	      1.31062243	     -6.44206210	     -1.39890462	      1.63228978	      0.02848883	      3.23261020	     -5.85945885	     -7.49999987	     -4.58555037	      1.30666577	      1.10960962	      0.74588566	     -7.14043528	     -2.78115170	     18.56945117	     67.93797874	      0.44572436	     -9.15240246	     26.60721344	     17.26643482	     69.03266127
      4.45000000	     -3.35143195	      0.23045790	     -2.50533262	      0.26714440	      1.00640739	     -0.10405697	      3.16385097	     -5.98141067	     -2.38326777	      3.98337466	      0.06952300	      6.55811219	     -9.53470685	     -7.49999987	      1.23543666	     -6.45744709	     -1.37209517	      1.62663093	      0.02839007	      3.22908648	     -5.73302210	     -7.49999987	     -4.72670666	      1.42360261	      1.08357004	      0.48563367	     -7.29362160	     -4.03913172	     18.85169912	     72.40195835	      0.50302721	     -9.33402764	     26.97795080	     17.03758536	     73.46902979
      4.45416670	     -3.36312012	      0.23762588	     -2.48173609	      0.26307918	      1.00563310	     -0.10825227	      3.22190145	     -6.05628184	     -2.40363264	      3.98620883	      0.06957247	      6.48830747	     -9.51443508	     -7.49999987	      1.30654540	     -6.36926190	     -1.39603818	      1.60038660	      0.02793202	      3.22503017	     -5.73940903	     -7.49999987	     -4.81716851	      1.52122189	      1.02340155	      0.48957066	     -7.49374512	     -4.06930700	     18.84249673	     72.39478555	      0.57551691	     -9.45162505	     26.96294775	     17.01438320	     73.46614198
